<?xml version="1.0" encoding="utf-8"?>
<!-- Generator: Adobe Illustrator 25.0.0, SVG Export Plug-In . SVG Version: 6.00 Build 0)  -->
<svg version="1.1" id="Layer_1" xmlns="http://www.w3.org/2000/svg" xmlns:xlink="http://www.w3.org/1999/xlink" x="0px" y="0px"
	 viewBox="0 0 147 145.1" style="enable-background:new 0 0 147 145.1;" xml:space="preserve">
<style type="text/css">
	.st0{fill:#BBBCBF;}
</style>
<g>
	<g>
		<path class="st0" d="M132.5,8.9h-118c-5.7,0-10.2,4.5-10.2,10.2V126c0,5.7,4.5,10.2,10.2,10.2h118c5.7,0,10.2-4.5,10.2-10.2V19.1
			C142.7,13.4,138.2,8.9,132.5,8.9z M9,19.1c0-3.1,2.4-5.6,5.5-5.6h118c3.1,0,5.5,2.4,5.5,5.5v21.3H9V19.1z M138.1,126
			c-0.2,3.1-2.6,5.4-5.6,5.4h-118c-3.1,0-5.5-2.4-5.5-5.5V45h129.1L138.1,126z"/>
	</g>
	<g>
		<path class="st0" d="M22.8,22.8c-2.3,0-4.1,1.8-4.1,4.1s1.8,4.1,4.1,4.1c2.3,0,4.1-1.8,4.1-4.1S25.1,22.8,22.8,22.8z"/>
	</g>
	<g>
		<path class="st0" d="M37.1,22.8c-2.3,0-4.1,1.8-4.1,4.1s1.8,4.1,4.1,4.1s4.1-1.8,4.1-4.1S39.4,22.8,37.1,22.8z"/>
	</g>
	<g>
		<path class="st0" d="M51.4,22.8c-2.3,0-4.1,1.8-4.1,4.1s1.8,4.1,4.1,4.1c2.3,0,4.1-1.8,4.1-4.1S53.7,22.8,51.4,22.8z"/>
	</g>
	<g>
		<path class="st0" d="M121,75.1h-16.2l-7.7-14.3l1.8-0.5c1.6-0.5,3.1-0.7,4.5-0.7c8,0,15.2,5.7,17.1,13.6L121,75.1z M106.6,72.1
			h10.5c-2.2-5.6-7.6-9.5-13.6-9.5c-0.6,0-1.2,0.1-1.9,0.2L106.6,72.1z"/>
	</g>
	<g>
		<path class="st0" d="M103.3,95.8C93.2,95.8,85,87.5,85,77.4c0-5.5,2.4-10.6,6.7-14.1l1.4-1.1l8.6,16.1c0.3,0.6,1,1,1.5,1h18.2
			l-0.3,1.8C119.6,89.6,112.1,95.8,103.3,95.8z M92.3,66.9c-2.7,2.8-4.2,6.5-4.2,10.5c0,8.5,6.8,15.4,15.3,15.4
			c6.8,0,12.6-4.3,14.5-10.5h-14.5c-1.7,0-3.4-1.1-4.2-2.6L92.3,66.9z"/>
	</g>
	<g>
		<path class="st0" d="M29.4,95.5c0.7,0,1.4-0.4,1.8-0.9L42,79.9l9.2,6.9c0.6,0.5,1.2,0.6,1.8,0.5c0.7-0.1,1.1-0.4,1.5-0.8L65.2,72
			l3.4,2.6c0.4,0.3,1,0.5,1.5,0.1l0.1-0.1c0.5-0.2,0.9-0.7,0.9-1.3l0.4-11.5c0-0.6-0.2-1-0.7-1.3c-0.4-0.3-0.8-0.3-1.5-0.2L58.6,64
			c-0.7,0.3-0.9,0.8-1,1.2c-0.1,0.5,0.1,1.1,0.5,1.4l3.4,2.6l-9.4,12.6L42.9,75c-0.4-0.3-1-0.5-1.8-0.5c-0.6,0.1-1,0.4-1.4,0.8
			L27.6,91.7c-0.7,1-0.5,2.4,0.5,3.3C28.4,95.2,28.9,95.5,29.4,95.5z"/>
	</g>
	<g>
		<path class="st0" d="M36.4,117.4h-7.7c-1.6,0-2.9-1.3-2.9-2.9v-11c0-1.6,1.3-2.9,2.9-2.9h7.7c1.6,0,2.9,1.3,2.9,2.9v11
			C39.3,116.1,38,117.4,36.4,117.4z M28.7,114.4h7.6v-10.8h-7.6V114.4z"/>
	</g>
	<g>
		<path class="st0" d="M53.8,117.4h-7.7c-1.6,0-2.9-1.3-2.9-2.9V95.7c0-1.6,1.3-2.9,2.9-2.9h7.7c1.7,0,2.9,1.3,2.9,2.9v18.8
			C56.7,116.1,55.4,117.4,53.8,117.4z M46.2,114.4h7.6V95.8h-7.6V114.4z"/>
	</g>
	<g>
		<path class="st0" d="M71.4,117.4h-7.7c-1.6,0-2.9-1.3-2.9-2.9V88c0-1.6,1.3-2.9,2.9-2.9h7.7c1.6,0,2.9,1.3,2.9,2.9v26.5
			C74.3,116.1,73,117.4,71.4,117.4z M63.8,114.4h7.6V88h-7.6V114.4z"/>
	</g>
	<g>
		<path class="st0" d="M118.5,117.4H88c-1.6,0-2.9-1.3-2.9-2.9v-7.7c0-1.6,1.3-2.9,2.9-2.9h30.5c1.6,0,2.9,1.3,2.9,2.9v7.7
			C121.4,116.1,120.1,117.4,118.5,117.4z M88,114.4h30.4v-7.6H88V114.4z"/>
	</g>
</g>
</svg>
