<?xml version="1.0" encoding="utf-8"?>
<!-- Generator: Adobe Illustrator 25.0.0, SVG Export Plug-In . SVG Version: 6.00 Build 0)  -->
<svg version="1.1" id="Layer_1" xmlns="http://www.w3.org/2000/svg" xmlns:xlink="http://www.w3.org/1999/xlink" x="0px" y="0px"
	 viewBox="0 0 150.2 148.3" style="enable-background:new 0 0 150.2 148.3;" xml:space="preserve">
<style type="text/css">
	.st0{fill:#BBBCBF;}
</style>
<g>
	<path class="st0" d="M146.5,135.6L15,3.5C14.6,3.2,14.2,3,13.7,3c-0.5,0-0.9,0.2-1.3,0.5l-9.1,9.1c-0.7,0.7-0.7,1.8,0,2.5
		l131.6,132.1c0.3,0.3,0.8,0.5,1.3,0.5c0.5,0,0.9-0.2,1.3-0.5l9.1-9.1C147.2,137.4,147.2,136.3,146.5,135.6 M7.1,13.9l6.5-6.6
		l28.1,28.2l-6.5,6.6L7.1,13.9z M136.2,143.4L37.8,44.7l6.5-6.6l98.4,98.8L136.2,143.4z"/>
	<path class="st0" d="M136.2,148.3c-0.6,0-1.2-0.2-1.6-0.7L3,15.5c-0.9-0.9-0.9-2.4,0-3.3L12,3.2c0.9-0.9,2.4-0.9,3.3,0l131.6,132.1
		l0,0c0.4,0.4,0.7,1,0.7,1.6c0,0.6-0.2,1.2-0.7,1.6l-9.1,9.1C137.4,148,136.8,148.3,136.2,148.3z M13.7,3.5c-0.3,0-0.7,0.1-0.9,0.4
		L3.7,13c-0.5,0.5-0.5,1.3,0,1.8l131.6,132.1c0.5,0.5,1.4,0.5,1.8,0l9.1-9.1c0.2-0.2,0.4-0.6,0.4-0.9c0-0.3-0.1-0.7-0.4-0.9l0,0
		L14.6,3.9C14.4,3.6,14,3.5,13.7,3.5z M136.2,144.1L37.1,44.7l7.2-7.3l0.4,0.4l98.7,99.1L136.2,144.1z M38.5,44.7l97.7,98.1l5.8-5.8
		L44.3,38.8L38.5,44.7z M35.2,42.8L6.4,13.9l7.2-7.3l28.8,28.9L35.2,42.8z M7.9,13.9l27.4,27.5l5.8-5.8L13.7,8.1L7.9,13.9z"/>
</g>
<g>
	<path class="st0" d="M146.4,62.7c-0.2-0.7-0.8-1.1-1.5-1.2l-12.4-1.8L127,48.4c-0.6-1.2-2.6-1.2-3.2,0l-5.6,11.2l-12.4,1.8
		c-0.7,0.1-1.2,0.6-1.5,1.2c-0.2,0.7,0,1.4,0.5,1.9l9,8.8l-2.1,12.4c-0.1,0.7,0.2,1.4,0.7,1.8c0.6,0.4,1.3,0.5,1.9,0.1l11.1-5.8
		l11.1,5.8c0.3,0.1,0.6,0.2,0.8,0.2c0.4,0,0.7-0.1,1.1-0.3c0.6-0.4,0.8-1.1,0.7-1.8L137,73.3l9-8.8C146.4,64,146.6,63.3,146.4,62.7
		 M133.8,71.3c-0.4,0.4-0.6,1-0.5,1.6l1.7,9.7l-8.7-4.6c-0.3-0.1-0.6-0.2-0.8-0.2c-0.3,0-0.6,0.1-0.8,0.2l-8.7,4.6l1.7-9.7
		c0.1-0.6-0.1-1.2-0.5-1.6l-7-6.9l9.7-1.4c0.6-0.1,1.1-0.5,1.4-1l4.4-8.8l4.4,8.8c0.3,0.5,0.8,0.9,1.4,1l9.7,1.4L133.8,71.3z"/>
	<path class="st0" d="M113.4,88.2c-0.5,0-0.9-0.1-1.4-0.4c-0.7-0.5-1.1-1.4-0.9-2.3l2.1-12.1l-8.8-8.6c-0.6-0.6-0.9-1.5-0.6-2.4
		c0.3-0.8,1-1.4,1.9-1.6l12.2-1.8l5.4-11c0.4-0.7,1.2-1.2,2.1-1.2c0,0,0,0,0,0c0.9,0,1.7,0.5,2.1,1.2l5.4,11l12.2,1.8
		c0.9,0.1,1.6,0.7,1.9,1.6c0.3,0.8,0,1.7-0.6,2.4l-8.8,8.6l2.1,12.1c0.2,0.9-0.2,1.7-0.9,2.3c-0.7,0.5-1.7,0.6-2.4,0.2l-10.9-5.7
		L114.5,88C114.1,88.1,113.7,88.2,113.4,88.2z M125.3,48c-0.4,0-0.9,0.2-1.2,0.6l-5.7,11.5l-12.7,1.8c-0.5,0.1-0.9,0.4-1.1,0.9
		c-0.2,0.5,0,1,0.3,1.3l9.2,8.9l-2.2,12.6c-0.1,0.5,0.1,1,0.5,1.3c0.4,0.3,0.9,0.3,1.4,0.1l11.3-6l11.4,6c0.4,0.2,1,0.2,1.4-0.1
		c0.4-0.3,0.6-0.8,0.5-1.3l-2.2-12.6l9.2-8.9c0.4-0.3,0.5-0.9,0.3-1.3c-0.2-0.5-0.6-0.8-1.1-0.9l-12.7-1.8l-5.7-11.5
		C126.3,48.1,125.8,48,125.3,48C125.3,48,125.3,48,125.3,48z M115.1,83.5l1.8-10.7c0.1-0.4-0.1-0.9-0.4-1.2l-7.8-7.6l10.7-1.6
		c0.4-0.1,0.8-0.3,1-0.7l4.8-9.7l4.8,9.7c0.2,0.4,0.6,0.7,1,0.7l10.7,1.6l-7.8,7.6c-0.3,0.3-0.4,0.7-0.4,1.2l1.8,10.7l-9.6-5
		c-0.4-0.2-0.8-0.2-1.2,0L115.1,83.5z M125.3,77.3c0.4,0,0.7,0.1,1.1,0.3l7.8,4.1l-1.5-8.7c-0.1-0.7,0.1-1.5,0.7-2l6.3-6.2l-8.7-1.3
		c-0.8-0.1-1.4-0.6-1.7-1.3l-3.9-7.9l-3.9,7.9c-0.3,0.7-1,1.2-1.7,1.3l-8.7,1.3l6.3,6.2c0.5,0.5,0.8,1.3,0.7,2l-1.5,8.7l7.8-4.1
		C124.6,77.4,125,77.3,125.3,77.3z"/>
</g>
<g>
	<path class="st0" d="M121.2,13.9l-9.4-1.4L107.6,4c-0.6-1.2-2.6-1.2-3.2,0l-4.2,8.5l-9.4,1.4c-0.7,0.1-1.2,0.6-1.5,1.2
		c-0.2,0.7,0,1.4,0.5,1.9l6.8,6.6L95,32.9c-0.1,0.7,0.2,1.4,0.7,1.8c0.3,0.2,0.7,0.3,1.1,0.3c0.3,0,0.6-0.1,0.8-0.2l8.4-4.4l8.4,4.4
		c0.6,0.3,1.3,0.3,1.9-0.1c0.6-0.4,0.8-1.1,0.7-1.8l-1.6-9.3l6.8-6.6c0.5-0.5,0.7-1.2,0.5-1.9C122.4,14.4,121.9,14,121.2,13.9
		 M112.2,21.6c-0.4,0.4-0.6,1-0.5,1.6l1.1,6.7l-6-3.1c-0.3-0.1-0.6-0.2-0.8-0.2c-0.3,0-0.6,0.1-0.8,0.2l-6,3.1l1.1-6.7
		c0.1-0.6-0.1-1.2-0.5-1.6l-4.8-4.7l6.7-1c0.6-0.1,1.1-0.5,1.4-1l3-6.1l3,6.1c0.3,0.5,0.8,0.9,1.4,1l6.7,1L112.2,21.6z"/>
	<path class="st0" d="M96.8,35.5c-0.5,0-1-0.2-1.4-0.4c-0.7-0.5-1.1-1.4-0.9-2.3l1.6-9.1l-6.6-6.4c-0.6-0.6-0.9-1.5-0.6-2.4
		c0.3-0.8,1-1.4,1.9-1.6l9.1-1.3l4.1-8.3c0.4-0.7,1.2-1.2,2.1-1.2c0,0,0,0,0,0c0.9,0,1.7,0.5,2.1,1.2l4.1,8.3l9.1,1.3
		c0.9,0.1,1.6,0.7,1.9,1.6c0.3,0.8,0,1.8-0.6,2.4l-6.6,6.4l1.6,9.1c0.2,0.9-0.2,1.7-0.9,2.3c-0.7,0.5-1.7,0.6-2.4,0.2l-8.2-4.3
		l-8.2,4.3C97.5,35.4,97.1,35.5,96.8,35.5z M106,29.8l8.6,4.5c0.4,0.2,1,0.2,1.4-0.1c0.4-0.3,0.6-0.8,0.5-1.3l-1.6-9.6l7-6.8
		c0.4-0.3,0.5-0.9,0.3-1.3s-0.6-0.8-1.1-0.9l-9.6-1.4l-4.3-8.7c-0.2-0.5-0.8-0.6-1.2-0.6c0,0,0,0,0,0c-0.4,0-0.9,0.2-1.2,0.6
		l-4.3,8.7l-9.6,1.4c-0.5,0.1-0.9,0.4-1.1,0.9c-0.2,0.5,0,1,0.3,1.3l7,6.8L95.5,33c-0.1,0.5,0.1,1,0.5,1.3c0.4,0.3,0.9,0.3,1.4,0.1
		L106,29.8z M113.5,30.8l-6.9-3.6c-0.4-0.2-0.8-0.2-1.2,0l-6.9,3.6l1.3-7.7c0.1-0.4-0.1-0.9-0.4-1.2l-5.6-5.4l7.7-1.1
		c0.4-0.1,0.8-0.3,1-0.7l3.4-7l3.4,7c0.2,0.4,0.6,0.7,1,0.7l7.7,1.1l-5.6,5.4c-0.3,0.3-0.4,0.7-0.4,1.2L113.5,30.8z M96,17.3l4.1,4
		c0.5,0.5,0.8,1.3,0.7,2l-1,5.7l5.1-2.7c0.7-0.3,1.5-0.3,2.1,0l5.1,2.7l-1-5.7c-0.1-0.7,0.1-1.5,0.7-2l4.1-4l-5.7-0.8
		c-0.8-0.1-1.4-0.6-1.7-1.3L106,10l-2.5,5.2c-0.3,0.7-1,1.2-1.7,1.3L96,17.3z"/>
</g>
<g>
	<path class="st0" d="M76.7,26.3c0-5.1-4.2-9.3-9.3-9.3c-5.1,0-9.3,4.2-9.3,9.3c0,5.1,4.2,9.3,9.3,9.3
		C72.5,35.6,76.7,31.4,76.7,26.3 M61.7,26.3c0-3.1,2.6-5.7,5.7-5.7c3.2,0,5.7,2.5,5.7,5.7c0,3.1-2.6,5.7-5.7,5.7
		C64.2,32,61.7,29.4,61.7,26.3"/>
	<path class="st0" d="M67.4,36.1c-5.4,0-9.8-4.4-9.8-9.8c0-5.4,4.4-9.8,9.8-9.8s9.8,4.4,9.8,9.8C77.2,31.7,72.8,36.1,67.4,36.1z
		 M67.4,17.5c-4.9,0-8.8,3.9-8.8,8.8c0,4.8,4,8.8,8.8,8.8s8.8-3.9,8.8-8.8C76.2,21.5,72.3,17.5,67.4,17.5z M67.4,32.5
		c-3.4,0-6.2-2.8-6.2-6.2c0-3.4,2.8-6.2,6.2-6.2c3.4,0,6.2,2.8,6.2,6.2C73.6,29.7,70.8,32.5,67.4,32.5z M67.4,21.1
		c-2.9,0-5.2,2.3-5.2,5.2c0,2.9,2.3,5.2,5.2,5.2c2.9,0,5.2-2.3,5.2-5.2C72.6,23.4,70.3,21.1,67.4,21.1z"/>
</g>
<g>
	<path class="st0" d="M17.4,53.5c-5.1,0-9.3,4.2-9.3,9.3c0,5.1,4.2,9.3,9.3,9.3c5.1,0,9.3-4.2,9.3-9.3
		C26.7,57.7,22.6,53.5,17.4,53.5 M17.4,68.5c-3.2,0-5.7-2.5-5.7-5.7c0-3.1,2.6-5.7,5.7-5.7c3.2,0,5.7,2.5,5.7,5.7
		C23.1,65.9,20.6,68.5,17.4,68.5"/>
	<path class="st0" d="M17.4,72.6c-5.4,0-9.8-4.4-9.8-9.8c0-5.4,4.4-9.8,9.8-9.8c5.4,0,9.8,4.4,9.8,9.8
		C27.2,68.2,22.8,72.6,17.4,72.6z M17.4,54c-4.9,0-8.8,3.9-8.8,8.8s4,8.8,8.8,8.8c4.9,0,8.8-3.9,8.8-8.8S22.3,54,17.4,54z M17.4,69
		c-3.4,0-6.2-2.8-6.2-6.2c0-3.4,2.8-6.2,6.2-6.2c3.4,0,6.2,2.8,6.2,6.2C23.6,66.2,20.8,69,17.4,69z M17.4,57.6
		c-2.9,0-5.2,2.3-5.2,5.2c0,2.9,2.3,5.2,5.2,5.2s5.2-2.3,5.2-5.2C22.6,60,20.3,57.6,17.4,57.6z"/>
</g>
<g>
	<path class="st0" d="M84.2,130.1c0-5.1-4.2-9.3-9.3-9.3c-5.1,0-9.3,4.2-9.3,9.3c0,5.1,4.2,9.3,9.3,9.3
		C80.1,139.4,84.2,135.2,84.2,130.1 M69.2,130.1c0-3.1,2.6-5.7,5.7-5.7c3.2,0,5.7,2.5,5.7,5.7c0,3.1-2.6,5.7-5.7,5.7
		C71.8,135.8,69.2,133.2,69.2,130.1"/>
	<path class="st0" d="M74.9,139.9c-5.4,0-9.8-4.4-9.8-9.8c0-5.4,4.4-9.8,9.8-9.8s9.8,4.4,9.8,9.8C84.7,135.5,80.3,139.9,74.9,139.9z
		 M74.9,121.3c-4.9,0-8.8,3.9-8.8,8.8c0,4.8,4,8.8,8.8,8.8s8.8-3.9,8.8-8.8C83.7,125.2,79.8,121.3,74.9,121.3z M74.9,136.3
		c-3.4,0-6.2-2.8-6.2-6.2c0-3.4,2.8-6.2,6.2-6.2c3.4,0,6.2,2.8,6.2,6.2C81.1,133.5,78.3,136.3,74.9,136.3z M74.9,124.9
		c-2.9,0-5.2,2.3-5.2,5.2c0,2.9,2.3,5.2,5.2,5.2s5.2-2.3,5.2-5.2C80.1,127.2,77.8,124.9,74.9,124.9z"/>
</g>
<g>
	<path class="st0" d="M55,105.5c-0.2-0.7-0.8-1.1-1.5-1.2l-11-1.6l-4.9-10c-0.6-1.2-2.6-1.2-3.2,0l-4.9,10l-11,1.6
		c-0.7,0.1-1.2,0.6-1.5,1.2c-0.2,0.7,0,1.4,0.5,1.9l8,7.8l-1.9,11c-0.1,0.7,0.2,1.4,0.7,1.8c0.6,0.4,1.3,0.5,1.9,0.1l9.9-5.2
		l9.9,5.2c0.3,0.1,0.6,0.2,0.8,0.2c0.4,0,0.7-0.1,1.1-0.3c0.6-0.4,0.8-1.1,0.7-1.8l-1.9-11l8-7.8C55,106.9,55.2,106.2,55,105.5
		 M43.3,113.2c-0.4,0.4-0.6,1-0.5,1.6l1.4,8.3l-7.5-3.9c-0.3-0.1-0.6-0.2-0.8-0.2c-0.3,0-0.6,0.1-0.8,0.2l-7.5,3.9l1.4-8.3
		c0.1-0.6-0.1-1.2-0.5-1.6l-6-5.9l8.4-1.2c0.6-0.1,1.1-0.5,1.4-1l3.7-7.6l3.7,7.6c0.3,0.5,0.8,0.9,1.4,1l8.4,1.2L43.3,113.2z"/>
	<path class="st0" d="M25.2,128.8c-0.5,0-0.9-0.1-1.4-0.4c-0.7-0.5-1.1-1.4-0.9-2.3l1.8-10.7l-7.8-7.6c-0.6-0.6-0.9-1.5-0.6-2.4
		c0.3-0.8,1-1.4,1.9-1.6l10.8-1.6l4.8-9.8c0.4-0.7,1.2-1.2,2.1-1.2s1.7,0.5,2.1,1.2l4.8,9.8l10.8,1.6c0.9,0.1,1.6,0.7,1.9,1.6
		c0.3,0.8,0,1.8-0.6,2.4l-7.8,7.6l1.8,10.7c0.1,0.9-0.2,1.7-0.9,2.3c-0.7,0.5-1.7,0.6-2.4,0.2l-9.7-5.1l-9.7,5.1
		C25.9,128.7,25.6,128.8,25.2,128.8z M35.9,92.3c-0.4,0-0.9,0.2-1.2,0.6l-5.1,10.2l-11.3,1.6c-0.5,0.1-0.9,0.4-1.1,0.9s0,1,0.3,1.3
		l8.2,8l-1.9,11.2c-0.1,0.5,0.1,1,0.5,1.3c0.4,0.3,0.9,0.3,1.4,0.1l10.1-5.3l10.1,5.3c0.4,0.2,1,0.2,1.4-0.1
		c0.4-0.3,0.6-0.8,0.5-1.3L46,115l8.2-8c0.4-0.3,0.5-0.9,0.3-1.3l0,0c-0.2-0.5-0.6-0.8-1.1-0.9l-11.3-1.6l-5.1-10.2
		C36.8,92.4,36.3,92.3,35.9,92.3z M26.9,124.1l1.6-9.3c0.1-0.4-0.1-0.9-0.4-1.2l-6.8-6.6l9.4-1.4c0.4-0.1,0.8-0.3,1-0.7l4.2-8.5
		l4.2,8.5c0.2,0.4,0.6,0.7,1,0.7l9.4,1.4l-6.8,6.6c-0.3,0.3-0.4,0.7-0.4,1.2l1.6,9.3l-8.4-4.4c-0.4-0.2-0.8-0.2-1.2,0L26.9,124.1z
		 M35.9,118.5c0.4,0,0.7,0.1,1.1,0.3l6.6,3.5l-1.3-7.3c-0.1-0.8,0.1-1.5,0.7-2l5.3-5.2l-7.4-1.1c-0.8-0.1-1.4-0.6-1.7-1.3l-3.3-6.7
		l-3.3,6.7c-0.3,0.7-1,1.2-1.7,1.3l-7.4,1.1l5.3,5.2c0.5,0.5,0.8,1.3,0.7,2l-1.3,7.3l6.6-3.5C35.2,118.6,35.5,118.5,35.9,118.5z"/>
</g>
</svg>
