<?xml version="1.0" encoding="utf-8"?>
<!-- Generator: Adobe Illustrator 25.0.0, SVG Export Plug-In . SVG Version: 6.00 Build 0)  -->
<svg version="1.1" id="Camada_1" xmlns="http://www.w3.org/2000/svg" xmlns:xlink="http://www.w3.org/1999/xlink" x="0px" y="0px"
	 viewBox="0 0 4062.3 826.7" style="enable-background:new 0 0 4062.3 826.7;" xml:space="preserve">
<style type="text/css">
	.st0{fill:#0C202C;}
	.st1{fill:#1ECAD3;}
	.st2{fill:#081F2D;}
</style>
<g>
	<g>
		<path class="st0" d="M1201.2,407.1l-39.9,32.4l121.2,0.1c-7.5-26.2-20.9-49.3-38.3-67.4c-16.2-16.7-35.8-29-57.4-35.1l-0.4,60.6
			C1191.6,400.2,1196.6,403.3,1201.2,407.1z"/>
		<path class="st0" d="M1155.4,585.5c-43.5,0-79.2-40.6-81.7-91.6c-4.7,8.8-9.4,18.5-14.2,29.3l-0.4,1c-6.4,14.8-13.3,28-20.3,39.9
			c23,47.3,66.7,79.3,116.7,79.3c58.8,0,109.2-43.5,127-106.2h-56.3C1211.8,566.5,1185.3,585.5,1155.4,585.5z"/>
		<path class="st0" d="M993.3,420.3c-7.8-19.7-19.1-37.3-32.9-51.6c-23.7-24.6-54.9-39.5-88.8-39.5c-66.3,0-121.6,56.3-132.1,129.8
			h53.1c9.5-41.4,41.3-71.9,79-71.9c17,0,32.8,6.1,45.9,16.5l-39.9,32.3l107.1,0.1l14.1,0C997.2,430.6,995.4,425.4,993.3,420.3z"/>
		<path class="st1" d="M1136.7,334.3c-17.9,1.5-34.8,8.7-50,18.7c-2.2,1.3-54.7,32.7-93.6,126.4l-1.3,3
			c-38.5,90.8-92.3,103.7-106.5,105.4c-3.5,0.4-6.6,0.7-9.5,0.7l-1.4,0c-43.9-1-79.4-42.8-80.8-95.1l-0.2-8.6h-53.8l0.2,9
			c1.7,87.2,60.8,147.4,134.5,149.4c14.4,0.4,102.9,4.5,161.2-129.7l0.3-0.8c23.5-53.5,47.4-82.8,63.6-98.1c2.6-2.6,5.5-5.1,8.6-7.5
			c9.6-7.3,20.2-12.1,31.6-14.2l21-3.8l0.4-55.9C1160.9,333.3,1142.1,333.8,1136.7,334.3z"/>
	</g>
	<path class="st0" d="M1535.4,175.8h63v449.9h-63V590c-11.2,15.9-24.3,27.7-39.3,35.4c-15,7.7-32.2,11.6-51.5,11.6
		c-38.9,0-69.5-13.3-91.9-39.9s-33.5-63-33.5-109.3c0-43.9,11.4-79.4,34.3-106.4s52.6-40.5,89.4-40.5c22.4,0,41.7,4.7,57.6,14.1
		c16,9.4,27.6,22.9,35,40.5L1535.4,175.8L1535.4,175.8z M1537.2,487.2c0-28.5-6.6-50.6-19.9-66.5c-13.3-15.9-31.8-23.8-55.6-23.8
		c-23.8,0-42.5,8.2-56.2,24.5c-13.6,16.4-20.5,39-20.5,68.1c0,29.2,6.6,51.8,19.7,67.6s31.7,23.8,55.7,23.8
		c22.8,0,41.3-8.6,55.4-25.7C1530.1,538.2,1537.2,515.5,1537.2,487.2z"/>
	<path class="st0" d="M1680,231.5c0-10.6,3.9-19.8,11.8-27.6c7.8-7.7,17.2-11.6,28-11.6c11.2,0,20.6,3.7,28,11.2
		c7.4,7.4,11.2,16.8,11.2,28c0,11.2-3.8,20.7-11.3,28.3c-7.6,7.6-16.8,11.5-27.9,11.5c-10.8,0-20.2-3.9-28-11.8
		C1683.9,251.7,1680,242.4,1680,231.5z M1688.4,625.7V350.5h63v275.2H1688.4z"/>
	<path class="st0" d="M2100.3,625.7h-63V590c-11.2,15.9-24.3,27.7-39.3,35.4c-15,7.7-32.2,11.6-51.5,11.6
		c-38.9,0-69.5-13.3-91.9-39.9s-33.5-63-33.5-109.3c0-43.9,11.4-79.4,34.3-106.4s52.6-40.5,89.4-40.5c22.4,0,41.7,4.7,57.6,14.1
		c16,9.4,27.6,22.9,35,40.5v-45h63L2100.3,625.7L2100.3,625.7z M2039.1,487.2c0-28.5-6.6-50.6-19.9-66.5
		c-13.3-15.9-31.8-23.8-55.6-23.8s-42.5,8.2-56.2,24.5c-13.6,16.4-20.5,39-20.5,68.1c0,29.2,6.6,51.8,19.7,67.6s31.7,23.8,55.7,23.8
		c22.6,0,41.1-8.6,55.3-25.8C2031.9,538,2039.1,515.3,2039.1,487.2z"/>
	<path class="st0" d="M2167.1,488.4c0-20.1,3.8-39.1,11.5-57c7.6-17.9,18.6-33.8,32.9-47.8c14.1-13.7,30.4-24.3,48.8-31.6
		c18.4-7.4,37.6-11,57.8-11c20.7,0,40.2,3.7,58.5,11c18.3,7.4,34.7,18.2,49.2,32.5c14.5,14.1,25.5,30.1,33.1,47.9s11.3,36.5,11.3,56
		c0,20.3-3.7,39.4-11.2,57.2s-18.3,33.6-32.7,47.3c-15.1,14.5-31.8,25.5-50.2,33c-18.4,7.5-37.7,11.2-58.1,11.2
		c-19.9,0-39.1-3.7-57.5-11.2s-34.7-18.2-49.1-32.4c-14.5-14.3-25.5-30.4-33.1-48.2C2170.8,527.5,2167.1,508.5,2167.1,488.4z
		 M2403.6,489c0-25.5-8.2-47.2-24.7-64.9c-16.4-17.7-36.6-26.6-60.4-26.6c-23.6,0-43.7,8.9-60.2,26.6s-24.8,39.3-24.8,64.9
		c0,25.5,8.3,47.2,24.8,64.9c16.6,17.7,36.6,26.6,60.2,26.6c23.6,0,43.7-8.8,60.2-26.6C2395.4,536.2,2403.6,514.5,2403.6,489z"/>
	<path class="st0" d="M2536.9,625.7V350.5h59.2v45c12.6-19,27.4-32.8,44.4-41.5c17-8.7,37.7-13.1,62.1-13.1c20.5,0,38,3.2,52.4,9.7
		c14.4,6.5,25.7,16.1,33.8,28.9c4.8,7.5,8.3,16.4,10.4,26.4c2.1,10.1,3.2,27.7,3.2,52.8v166.9h-63.6V484.3
		c0-36.2-4.4-60.2-13.2-72.1s-24.4-17.9-46.9-17.9c-14.7,0-27.8,2.7-39.3,8.1c-11.5,5.4-20.6,13.1-27.1,22.9
		c-4.6,6.6-7.9,15-9.7,25.4c-1.8,10.4-2.8,26.9-2.8,49.5v125.4L2536.9,625.7L2536.9,625.7z"/>
	<path class="st0" d="M2886.4,625.7V350.5h59.2v45c12.6-19,27.4-32.8,44.4-41.5c17-8.7,37.7-13.1,62.1-13.1c20.5,0,38,3.2,52.4,9.7
		c14.4,6.5,25.7,16.1,33.8,28.9c4.8,7.5,8.3,16.4,10.4,26.4c2.1,10.1,3.2,27.7,3.2,52.8v166.9h-63.6V484.3
		c0-36.2-4.4-60.2-13.2-72.1s-24.4-17.9-46.9-17.9c-14.7,0-27.8,2.7-39.3,8.1c-11.5,5.4-20.6,13.1-27.1,22.9
		c-4.6,6.6-7.9,15-9.7,25.4c-1.8,10.4-2.8,26.9-2.8,49.5v125.4L2886.4,625.7L2886.4,625.7z"/>
	<g>
		<g>
			<path class="st0" d="M313.2,625.7h-63V350.5h59.2v45c12.6-19.2,26.9-33.1,42.8-42c16-8.8,34.8-13.2,56.5-13.2
				c21.5,0,39.3,4.5,53.4,13.5c14.1,9,24.9,22.7,32.2,41.1c14.5-19,29.9-32.8,46.3-41.5c16.4-8.7,35-13.1,55.9-13.1
				c18.2,0,34.1,3.3,47.6,10c13.5,6.7,24.1,16.4,31.6,29.2c3.5,6,6,13.2,7.7,21.5s2.5,20.2,2.5,35.7v22.1v166.9h-63V484.3
				c0-37-3.9-61.3-11.8-73c-7.8-11.7-21.8-17.6-42-17.6c-24.8,0-42.4,7.9-53,23.7c-10.5,15.8-15.8,43.4-15.8,82.9v125.4h-63.6V484.3
				c0-34.1-4.1-57.7-12.3-70.8c-8.2-13.2-22.4-19.7-42.5-19.7c-12.4,0-23.7,2.8-34,8.4c-10.3,5.6-18.4,13.4-24.4,23.2
				c-3.9,6.4-6.6,14.2-8.1,23.5c-1.5,9.3-2.3,26.4-2.3,51.4L313.2,625.7L313.2,625.7z"/>
		</g>
	</g>
	<path class="st0" d="M3460,427.9c-7.8-19.7-19.1-37.3-32.9-51.6c-23.7-24.6-54.9-39.5-88.8-39.5c-66.3,0-121.6,56.3-132.1,129.8
		h53.1c9.5-41.4,41.3-71.9,79-71.9c17,0,32.8,6.1,45.9,16.5l-39.9,32.3l107.1,0.1l14.1,0C3463.9,438.2,3462,433,3460,427.9z"/>
	<path class="st1" d="M3458.5,486.9l-1.3,3c-38.5,90.8-91.1,103.7-105.3,105.4c-3.5,0.4-6.6,0.7-9.5,0.7l-1.4,0
		c-43.9-1-79.4-42.8-80.9-95.1l-0.2-8.6h-53.8l0.2,9c1.7,87.2,60.8,147.4,134.5,149.4c14.4,0.4,102.9,4.5,161.2-129.7l0.3-0.8"/>
	<path class="st0" d="M3537.3,495.2l5.6,51.1l65.6-101.9c-26.1-7.8-52.8-9.1-77.4-4.2c-22.8,4.6-41.5,15.3-58.3,30.1l46.2,31.5
		C3524.1,498.8,3531.7,497.1,3537.3,495.2z"/>
	<g>
		<path class="st2" d="M3732,276.6c11,0,21.4,2,31.2,6.1c9.8,4,18.5,10,26.1,17.8c7.4,7.5,13.1,16,17,25.6
			c3.9,9.6,5.8,19.7,5.8,30.4c0,11-2,21.4-6,31c-4,9.7-9.8,18.2-17.5,25.6c-7.8,7.6-16.5,13.4-26.3,17.4c-9.7,4-19.9,6.1-30.4,6.1
			c-10.6,0-20.8-2.1-30.5-6.2c-9.8-4.1-18.5-10.1-26.1-17.9c-7.6-7.6-13.3-16.2-17.3-25.8c-4-9.6-5.9-19.6-5.9-30.2
			c0-10.6,2.1-20.8,6.2-30.7c4.1-9.9,10.1-18.7,17.9-26.5c7.5-7.5,15.9-13.1,25.3-17C3711,278.5,3721.1,276.6,3732,276.6z
			 M3732.1,288.6c-9.3,0-17.9,1.6-25.9,4.9c-8,3.3-15.2,8.1-21.6,14.5c-6.6,6.8-11.7,14.3-15.2,22.6c-3.6,8.3-5.3,17-5.3,26
			c0,9,1.7,17.5,5.1,25.7c3.4,8.2,8.3,15.5,14.7,21.9c6.5,6.5,13.8,11.6,22,15.1c8.2,3.5,16.6,5.3,25.2,5.3c9.3,0,18.2-1.7,26.6-5.1
			c8.4-3.4,15.9-8.3,22.6-14.9c6.4-6.2,11.3-13.3,14.8-21.4c3.4-8.1,5.2-16.6,5.2-25.6c0-9.6-1.6-18.4-4.9-26.7
			c-3.3-8.2-8.1-15.6-14.5-22.1c-6.7-6.6-14.1-11.6-22.4-15.1C3750.1,290.3,3741.4,288.6,3732.1,288.6z M3699.4,310.2h34.5
			c12.5,0,21.9,2.1,28.3,6.2c6.4,4.1,9.6,10.2,9.6,18.1c0,6.6-1.7,12-5.2,16.3c-3.5,4.3-8.4,7.1-14.8,8.5l20,40.6h-21.5l-17.8-37.5
			h-14v37.5h-19.2V310.2z M3718.6,322.3v28.2h12.7c7.2,0,12.5-1.1,15.8-3.3c3.3-2.2,5-5.7,5-10.4c0-5-1.7-8.6-5.2-11
			c-3.5-2.3-9-3.5-16.5-3.5H3718.6z"/>
	</g>
</g>
</svg>
