<?xml version="1.0" encoding="utf-8"?>
<!-- Generator: Adobe Illustrator 25.0.0, SVG Export Plug-In . SVG Version: 6.00 Build 0)  -->
<svg version="1.1" id="Layer_1" xmlns="http://www.w3.org/2000/svg" xmlns:xlink="http://www.w3.org/1999/xlink" x="0px" y="0px"
	 viewBox="0 0 175.2 172.9" style="enable-background:new 0 0 175.2 172.9;" xml:space="preserve">
<style type="text/css">
	.st0{fill:#BBBCBF;}
</style>
<path class="st0" d="M13.3,124.4h59.2L63.3,148H48.8c-1.6,0-2.9,1.3-2.9,2.9v13.8c0,1.6,1.3,2.9,2.9,2.9h82.5c1.6,0,2.9-1.3,2.9-2.9
	v-13.8c0-1.6-1.3-2.9-2.9-2.9H117l-9.2-23.6H167c1.6,0,2.9-1.3,2.9-2.9V12.2c0-1.6-1.3-2.9-2.9-2.9H13.3c-1.6,0-2.9,1.3-2.9,2.9
	v109.4C10.4,123.1,11.7,124.4,13.3,124.4 M115.1,153.7h13.4v8.1H51.6v-8.1L115.1,153.7L115.1,153.7z M110.9,148H69.4l9.2-23.6h23
	L110.9,148z M16.2,15h147.9v79.6H16.2V15z M16.2,100.3h147.9v18.3H16.2V100.3z"/>
</svg>
