<?xml version="1.0" encoding="utf-8"?>
<!-- Generator: Adobe Illustrator 25.0.0, SVG Export Plug-In . SVG Version: 6.00 Build 0)  -->
<svg version="1.1" id="Layer_1" xmlns="http://www.w3.org/2000/svg" xmlns:xlink="http://www.w3.org/1999/xlink" x="0px" y="0px"
	 viewBox="0 0 1920 446" style="enable-background:new 0 0 1920 446;" xml:space="preserve">
<style type="text/css">
	.st0{fill:#001A28;}
	.st1{fill:#01CAD2;}
</style>
<path class="st0" d="M0,331C0,221,0,111,0,1c23.7,1.3,47.7,1.2,71.2,4.1c71,8.8,135.3,33.8,191.2,79.5c34.3,28,69.3,55.1,107.3,78.1
	c56,33.8,115.7,56,181.8,57.8c30.2,0.8,60.2-1.1,89.9-7.4c7-1.2,14.1-2.2,21.1-3.6c41.4-8.9,81.5-22.3,121.5-35.9
	c47.4-16.1,94.8-32.3,143.6-43.9c42.7-10.1,85.9-16.8,129.7-19.9c37.4-2.6,74.6-1.7,111.7,3.6c46.8,6.8,92.3,19.2,136.2,36.4
	c48.9,19.2,97.3,39.9,145.9,59.9c57.7,23.7,116.2,44.8,179.1,49.8c30.4,2.4,60.6,1.5,90.3-6c44.3-11.1,83-33.1,118.5-61.1
	c28.1-22.1,53.2-47.4,76.2-74.9c1.2-1.5,3.2-2.4,4.8-3.6c0,54.3,0,108.7,0,163c-1.3,0.3-2.5,0.7-3.8,0.9
	c-15.1,2.2-30.4,3.8-45.4,6.8c-47.1,9.4-91.2,26.9-133.4,49.7c-40.7,22-81.5,44-124.6,61.3c-59.7,23.9-121.3,38.2-185.8,39.3
	c-53.9,0.9-107.1-5.5-159.2-18.7c-50-12.7-99.6-26.9-149.1-41.7c-87.6-26.2-176.1-47.4-267.4-55.8c-47.2-4.4-94.2-4.1-141.1,1.6
	c-42.5,5.2-84.3,13.7-125.4,25.4c-53.3,15.2-106.3,31.4-159.5,46.8c-58.4,16.9-117.4,30.6-178.7,32c-42.2,1-83.7-3.4-123.7-18
	C76.9,389.6,36.6,363.3,0,331z"/>
<path class="st1" d="M641.5,213.1c21.7-7,43.6-13.2,64.9-21.1c40.5-15,80.6-31.2,121.1-46.5c49.4-18.7,99.7-34.3,151.7-43.9
	c48.8-9.1,97.8-14.5,147.5-11.5c48.1,3,95.2,11.7,140.9,26.7c49.8,16.3,99,34.2,148.3,51.8c43,15.3,86,30.2,130.9,38.9
	c43,8.4,86.2,11,129.6,3.5c37.7-6.5,71.7-22.1,103.2-43.4c47.5-32,85.8-73.1,119.1-119.2c7.4-10.2,14.2-20.9,21.3-31.4
	c0,32.3,0,64.7,0,97c-1.6,1.2-3.5,2.1-4.8,3.6c-23,27.4-48,52.7-76.2,74.9c-35.6,28-74.3,50-118.5,61.1c-29.7,7.5-60,8.4-90.3,6
	c-62.9-5-121.4-26.1-179.1-49.8c-48.6-20-97-40.7-145.9-59.9c-43.9-17.2-89.4-29.6-136.2-36.4c-37.1-5.4-74.3-6.2-111.7-3.6
	c-43.8,3.1-87,9.7-129.7,19.9c-48.8,11.6-96.2,27.8-143.6,43.9c-40,13.6-80.1,27.1-121.5,35.9C655.6,211,648.5,211.9,641.5,213.1z"
	/>
</svg>
