<?xml version="1.0" encoding="utf-8"?>
<!-- Generator: Adobe Illustrator 25.0.0, SVG Export Plug-In . SVG Version: 6.00 Build 0)  -->
<svg version="1.1" id="Layer_1" xmlns="http://www.w3.org/2000/svg" xmlns:xlink="http://www.w3.org/1999/xlink" x="0px" y="0px"
	 viewBox="0 0 150.2 148.3" style="enable-background:new 0 0 150.2 148.3;" xml:space="preserve">
<style type="text/css">
	.st0{fill:#BBBCBF;}
</style>
<g>
	<path class="st0" d="M76.5,70.2c-0.6,0-1.2,0.2-1.6,0.7c-0.9,0.9-0.9,2.4,0,3.3c0.9,0.9,2.4,0.9,3.3,0c0.9-0.9,0.9-2.4,0-3.3
		C77.7,70.5,77.1,70.2,76.5,70.2z"/>
	<path class="st0" d="M94.9,54.2c5.3,5.3,14,5.3,19.3,0c5.3-5.3,5.3-14,0-19.3c-2.7-2.7-6.2-4-9.7-4c-3.5,0-7,1.3-9.7,4
		C89.5,40.2,89.5,48.9,94.9,54.2z M98.2,38.2c1.7-1.7,4-2.6,6.4-2.6c2.4,0,4.7,0.9,6.4,2.6c3.5,3.5,3.5,9.2,0,12.7
		c-1.7,1.7-4,2.6-6.4,2.6c-2.4,0-4.7-0.9-6.4-2.6C94.7,47.4,94.7,41.7,98.2,38.2z"/>
	<path class="st0" d="M146.2,2.8L146.2,2.8c-0.5-0.5-1.1-0.7-1.7-0.7c-0.6,0-15.8,0.6-33.9,7c-14.5,5.1-26.5,12.4-35.8,21.7
		c-2.1,2.1-4.1,4.3-6.1,6.6l-0.3,0.3l-0.4-0.2c-9.1-5.4-16.4-3.6-20.8-1.2C36.7,42,30.1,57.5,30.1,68.6c0,0.9,0.6,1.8,1.4,2.2
		c0.9,0.4,1.9,0.2,2.5-0.5c5.9-5.9,13.3-5.5,15.4-5.2l0.2,0l1.4,1.3l-0.1,0.3c-1.9,4.6-3.5,9.2-4.7,13.7c-0.4,1.5-0.3,3.1,0.3,4.6
		l0.2,0.4l-0.4,0.2c-2.7,1.2-5.3,3.1-7.5,5.3c-7.2,7.2-8.6,24.8-8.7,25.5c-0.1,0.7,0.2,1.4,0.7,1.8c0.5,0.5,1.2,0.7,1.8,0.7
		c0.7-0.1,18.4-1.5,25.5-8.7c2.2-2.2,4.1-4.8,5.3-7.5l0.2-0.4l0.4,0.2c1.5,0.6,3.1,0.7,4.6,0.3c4.5-1.1,9.1-2.7,13.7-4.7l0.3-0.1
		l1.3,1.4l0,0.2c0.3,2.1,0.7,9.5-5.2,15.4c-0.7,0.7-0.9,1.7-0.5,2.5c0.4,0.9,1.2,1.4,2.2,1.4c11.1,0,26.5-6.6,32.2-17.2
		c2.4-4.5,4.1-11.7-1.2-20.8l-0.2-0.4l0.3-0.3c2.3-2,4.5-4,6.6-6.1c9.3-9.3,16.6-21.3,21.7-35.8c6.4-18.1,7-33.2,7-33.9
		C146.9,3.9,146.7,3.3,146.2,2.8z M36.2,62.9l-0.9,0.5l0.2-1c1.7-8,6.7-17.9,14.1-21.9c4.8-2.6,10-2.3,15.6,0.7l0.5,0.3l-0.4,0.5
		c-4.6,6-8.5,12.5-11.8,19.3l-0.2,0.5l-0.6-0.4c-0.4-0.4-0.8-0.6-1.2-0.7C51,60.5,43.6,58.9,36.2,62.9z M59.7,99.5
		c-1,2.6-2.7,5.2-4.9,7.4c-4.4,4.4-14.8,6.3-19.1,6.9l-0.7,0.1l0.1-0.7c0.6-4.3,2.5-14.7,6.9-19.1c2.2-2.2,4.8-3.9,7.4-4.9l0.3-0.1
		l10,10L59.7,99.5z M78.4,94.8c-3.7,1.5-7.3,2.6-10.9,3.6h0c-0.2,0.1-0.4,0.1-0.6,0.1c-0.8,0-1.7-0.4-2.3-1L51.7,84.5
		c-0.8-0.8-1.2-2-0.9-3c0.9-3.5,2.1-7.2,3.6-10.9l0.3-0.7l24.5,24.5L78.4,94.8z M108.6,99.6c-4,7.4-13.9,12.4-21.9,14.1l-1,0.2
		l0.5-0.9c2.7-5.1,3.2-11.5,2.3-15.2c-0.2-0.6-0.5-1-0.7-1.1l-0.1-0.2l-0.3-0.5l0.5-0.2c6.8-3.3,13.3-7.3,19.3-11.8l0.5-0.4l0.3,0.5
		C110.9,89.5,111.2,94.8,108.6,99.6z M134.9,38.5c-4.8,13.1-11.6,23.9-20,32.4c-2.6,2.6-5.3,5-8.2,7.4C99.8,83.8,92.1,88.6,84,92.3
		l-0.3,0.1L56.6,65.4l0.1-0.3c3.8-8.1,8.5-15.8,14.1-22.7c2.3-2.9,4.8-5.6,7.4-8.2c8.4-8.4,19.3-15.2,32.4-20l0.3-0.1L135,38.2
		L134.9,38.5z M142,7.6c-0.4,4.7-1.7,14.1-5.1,25l-0.2,0.8l-21-21l0.8-0.2c10.8-3.4,20.3-4.6,25-5.1l0.6-0.1L142,7.6z"/>
	<path class="st0" d="M22.1,90.2l8-8c0.9-0.9,0.9-2.4,0-3.3c-0.5-0.5-1.1-0.7-1.6-0.7c-0.6,0-1.2,0.2-1.6,0.7l-8,8
		c-0.9,0.9-0.9,2.4,0,3.3C19.7,91.1,21.2,91.1,22.1,90.2z"/>
	<path class="st0" d="M48.5,122.3c-0.6,0-1.2,0.2-1.6,0.7l-19.2,19.2c-0.4,0.4-0.7,1-0.7,1.6s0.2,1.2,0.7,1.6c0.9,0.9,2.4,0.9,3.3,0
		l19.2-19.2c0.4-0.4,0.7-1,0.7-1.6c0-0.6-0.2-1.2-0.7-1.6C49.7,122.5,49.1,122.3,48.5,122.3z"/>
	<path class="st0" d="M27.5,123c-0.5-0.5-1.1-0.7-1.6-0.7s-1.2,0.2-1.6,0.7L5,142.2c-0.4,0.4-0.7,1-0.7,1.6s0.2,1.2,0.7,1.6
		c0.9,0.9,2.4,0.9,3.3,0l19.2-19.2C28.4,125.4,28.4,123.9,27.5,123z"/>
	<path class="st0" d="M26.1,102.2c0.4-0.4,0.7-1,0.7-1.6c0-0.6-0.2-1.2-0.7-1.6c-0.5-0.5-1.1-0.7-1.6-0.7s-1.2,0.2-1.6,0.7
		L3.6,118.1c-0.9,0.9-0.9,2.4,0,3.3s2.4,0.9,3.3,0L26.1,102.2z"/>
	<path class="st0" d="M88.5,58.2c-0.6,0-1.2,0.2-1.6,0.7l-4,4c-0.9,0.9-0.9,2.4,0,3.3c0.9,0.9,2.4,0.9,3.3,0l4-4
		c0.9-0.9,0.9-2.4,0-3.3C89.7,58.4,89.1,58.2,88.5,58.2z"/>
</g>
</svg>
