<?xml version="1.0" encoding="utf-8"?>
<!-- Generator: Adobe Illustrator 25.0.0, SVG Export Plug-In . SVG Version: 6.00 Build 0)  -->
<svg version="1.1" id="Layer_1" xmlns="http://www.w3.org/2000/svg" xmlns:xlink="http://www.w3.org/1999/xlink" x="0px" y="0px"
	 viewBox="0 0 175.2 148.3" style="enable-background:new 0 0 175.2 148.3;" xml:space="preserve">
<style type="text/css">
	.st0{fill:#BBBCBF;}
</style>
<path class="st0" d="M143.3,4.9c-12.6,0-22.6,10.1-22.6,22.7s10.1,22.6,22.6,22.6c12.5,0,22.7-10.1,22.7-22.7
	C166,14.8,155.9,4.9,143.3,4.9 M143.3,45.2c-9.8,0-17.7-7.9-17.7-17.7c0-9.8,8.1-17.6,17.7-17.6c9.8,0,17.7,7.9,17.7,17.7
	C161,37.4,153.1,45.2,143.3,45.2"/>
<path class="st0" d="M150.4,31c-0.2-0.5-0.2-0.8-0.5-1.2c-0.2-0.3-0.3-0.8-0.6-1.1c-0.3-0.3-0.5-0.6-0.8-0.9
	c-0.3-0.3-0.6-0.6-1.1-0.8c-0.3-0.3-0.8-0.5-1.1-0.6c-0.5-0.2-0.8-0.5-1.2-0.6c-0.5-0.2-0.9-0.3-1.2-0.5c-0.2,0-0.5-0.2-0.6-0.3
	c-0.2-0.2-0.5-0.2-0.6-0.3c-0.2-0.2-0.5-0.2-0.6-0.3c-0.2-0.2-0.3-0.3-0.5-0.5c-0.2-0.2-0.3-0.3-0.3-0.6c-0.2-0.2-0.2-0.5-0.2-0.6
	v-0.8c0-0.2,0.2-0.5,0.2-0.6c0.2-0.2,0.2-0.5,0.3-0.6c0.2-0.2,0.3-0.3,0.5-0.5c0.2-0.2,0.5-0.3,0.8-0.3c0.3-0.2,0.5-0.2,0.8-0.2h0.5
	h0.5c0.3,0,0.5,0,0.8,0.2c0.3,0,0.6,0.2,0.8,0.2c0.2,0,0.5,0.2,0.6,0.2c0.3,0,0.5,0.2,0.6,0.2l0.8,0.3l0.2-0.9l0.3-2.5v-0.6
	l-0.6-0.2c-0.2,0-0.5-0.2-0.6-0.2c-0.2,0-0.3-0.2-0.6-0.2c-0.2,0-0.5-0.2-0.8-0.2s-0.5-0.2-0.8-0.2H145v-2.2v-0.8h-0.8H142h-0.8v0.8
	v2.3h-0.2c-0.5,0.2-0.9,0.3-1.4,0.6c-0.5,0.2-0.8,0.5-1.1,0.8c-0.3,0.3-0.6,0.6-0.9,1.1c-0.3,0.3-0.5,0.8-0.6,1.2
	c-0.2,0.5-0.3,0.9-0.5,1.4c-0.2,0.5-0.2,1.1-0.2,1.6s0,0.8,0.2,1.2c0.2,0.5,0.2,0.8,0.5,1.2c0.2,0.3,0.5,0.8,0.6,1.1
	c0.3,0.3,0.5,0.6,0.8,0.9c0.3,0.3,0.6,0.6,1.1,0.8c0.3,0.3,0.8,0.5,1.1,0.6c0.5,0.2,0.9,0.5,1.2,0.6c0.5,0.2,0.9,0.3,1.2,0.5
	c0.2,0,0.5,0.2,0.6,0.3c0.2,0.2,0.5,0.2,0.6,0.3c0.2,0.2,0.3,0.3,0.5,0.3c0.2,0.2,0.3,0.3,0.5,0.5c0.2,0.2,0.2,0.3,0.3,0.6
	c0,0.2,0.2,0.5,0.2,0.8v0.8c0,0.2-0.2,0.5-0.3,0.6c-0.2,0.2-0.3,0.3-0.5,0.5c-0.2,0.2-0.3,0.3-0.6,0.5c-0.2,0.2-0.5,0.2-0.6,0.3
	c-0.2,0-0.5,0.2-0.8,0.2h-0.6h-0.6h-0.8c-0.3,0-0.6-0.2-0.8-0.2c-0.3,0-0.6-0.2-0.9-0.3c-0.3-0.2-0.6-0.2-0.9-0.3
	c-0.2,0-0.3-0.2-0.5-0.2c-0.2,0-0.3-0.2-0.5-0.2l-0.9-0.5l-0.2,1.1l-0.3,2.8V38l0.5,0.2c0.6-0.2,0.9,0,1.4,0.2
	c0.3,0.2,0.8,0.3,1.1,0.3c0.3,0.2,0.8,0.2,1.2,0.3c0.5,0.2,0.8,0.2,1.2,0.2h0.3v2.3v0.8h0.8h2.2h0.8v-0.8V39h0.2
	c0.5-0.2,0.9-0.3,1.4-0.6c0.5-0.2,0.8-0.5,1.2-0.8c0.3-0.3,0.6-0.6,0.9-1.1c0.3-0.3,0.5-0.8,0.8-1.2l0.5-1.4
	c0.2-0.5,0.2-0.9,0.2-1.6C150.6,31.8,150.6,31.5,150.4,31"/>
<path class="st0" d="M132.4,53.1c-0.8-1.1-2.5-1.2-3.6-0.5l-25.2,20.1L71,59.2c-0.8-0.3-1.7-0.2-2.3,0.3L33.8,84.4
	c-1.1,0.8-1.4,2.3-0.6,3.4c0.5,0.8,1.2,1.1,2,1.1c0.5,0,0.9-0.2,1.4-0.5l33.8-24.1l32.7,13.5c0.8,0.3,1.9,0.2,2.5-0.3l26.3-20.9
	C133,55.9,133.2,54.2,132.4,53.1"/>
<path class="st0" d="M168.8,138.4h-11.5V66.4c0-1.4-1.1-2.5-2.5-2.5h-22.9c-1.4,0-2.5,1.1-2.5,2.5v72.1H121V91.3
	c0-1.4-1.1-2.5-2.5-2.5h-23c-1.4,0-2.5,1.1-2.5,2.5v47.2h-8.4V87.5c0-1.4-1.1-2.5-2.5-2.5H59.2c-1.4,0-2.5,1.1-2.5,2.5v50.9h-8.4
	v-36.3c0-1.4-1.1-2.5-2.5-2.5h-23c-1.4,0-2.5,1.1-2.5,2.5v36.3H8.6c-1.4,0-2.5,1.1-2.5,2.5s1.1,2.5,2.5,2.5h14h22.9h13.7h22.9h13.4
	h22.9h13.4h22.9h14c1.4,0,2.5-1.1,2.5-2.5C171.3,139.5,170.2,138.4,168.8,138.4 M43.2,138.4H25.3v-33.8h17.9V138.4z M79.6,138.4
	H61.7V90h17.9V138.4z M115.9,138.4H98V93.8h17.9V138.4z M152.3,138.4h-17.9V68.9h17.9V138.4z"/>
</svg>
